<svg xmlns="http://www.w3.org/2000/svg" xmlns:xlink="http://www.w3.org/1999/xlink" id="Calque_1" x="0px" y="0px" viewBox="0 0 1080 1080" style="enable-background:new 0 0 1080 1080;" xml:space="preserve"><style type="text/css">	.st0{fill:url(#SVGID_1_);}	.st1{fill:url(#SVGID_2_);}	.st2{fill:url(#SVGID_3_);}</style><linearGradient id="SVGID_1_" gradientUnits="userSpaceOnUse" x1="544.0416" y1="-57.2668" x2="537.2916" y2="1080.1082">	<stop offset="0" style="stop-color:#071B25"></stop>	<stop offset="0.9992" style="stop-color:#0A1412"></stop></linearGradient><rect x="0.5" y="-0.5" class="st0" width="1080" height="1080"></rect><g>	<g>		<linearGradient id="SVGID_2_" gradientUnits="userSpaceOnUse" x1="150.8499" y1="540" x2="929.1501" y2="540">			<stop offset="0" style="stop-color:#58BCB6"></stop>			<stop offset="0.6932" style="stop-color:#D0E2DE"></stop>			<stop offset="0.7412" style="stop-color:#C1DAD6"></stop>			<stop offset="0.8331" style="stop-color:#9BC5C0"></stop>			<stop offset="0.9584" style="stop-color:#5DA39E"></stop>			<stop offset="1" style="stop-color:#479792"></stop>		</linearGradient>		<path class="st1" d="M150.85,348.05h102.64v468.76h97.79V348.05h102.64v-84.86H150.85V348.05z M824.89,263.19L715.78,570.31   L606.67,263.19H503.22v553.62h92.94V587.28c0-59.27-4.04-113.96-12.12-164.07l91.33,250.54h80.82l90.52-250.54   c-7.55,54.96-11.32,109.65-11.32,164.07v229.53h93.75V263.19H824.89z"></path>	</g></g><g>	<g>		<linearGradient id="SVGID_3_" gradientUnits="userSpaceOnUse" x1="173.6809" y1="1554.5211" x2="1946.1573" y2="1632.4773">			<stop offset="0.1671" style="stop-color:#58BCB6"></stop>			<stop offset="0.2047" style="stop-color:#7AC7C1"></stop>			<stop offset="0.248" style="stop-color:#99D0CC"></stop>			<stop offset="0.2933" style="stop-color:#B1D8D4"></stop>			<stop offset="0.3408" style="stop-color:#C2DED9"></stop>			<stop offset="0.3921" style="stop-color:#CDE1DD"></stop>			<stop offset="0.4536" style="stop-color:#D0E2DE"></stop>			<stop offset="0.5098" style="stop-color:#C9E0DC"></stop>			<stop offset="0.5915" style="stop-color:#B6DAD5"></stop>			<stop offset="0.6888" style="stop-color:#96D0CB"></stop>			<stop offset="0.7971" style="stop-color:#6AC2BC"></stop>			<stop offset="0.8374" style="stop-color:#58BCB6"></stop>		</linearGradient>		<path class="st2" d="M621.33,1620.91c-3.65,2.1-7.41,3.15-11.27,3.15c-5.31,0-7.96-2.65-7.96-7.95v-70.61h-20.22v74.09   c0,7.29,1.89,12.87,5.64,16.74c3.75,3.86,9.14,5.8,16.15,5.8s13.24-1.55,18.65-4.64v4.47h18.89v-96.46h-19.89V1620.91z    M697.08,1545c-6.3,0-12.65,1.6-19.06,4.81v-4.31h-18.89v96.46h20.05v-75.41c3.76-2.1,7.52-3.15,11.28-3.15   c4.85,0,7.29,2.38,7.29,7.13v71.43h20.38v-75.75c0-6.96-1.93-12.24-5.8-15.83S703.38,1545,697.08,1545z M410.85,1544.67   c-10.4,0-18.74,1.05-25.03,3.15v17.9c6.4-2.32,12.98-3.48,19.72-3.48c6.74,0,11.05,0.78,12.93,2.32c1.89,1.55,2.88,4.03,2.99,7.46   v11.11l-20.05,5.47c-7.18,1.99-12.38,4.92-15.58,8.78c-3.21,3.87-4.81,9.17-4.81,15.91v5.64c0,7.96,1.82,13.87,5.47,17.73   c3.65,3.87,9.37,5.8,17.15,5.8c7.8,0,13.84-2.49,18.15-7.46v6.96h18.89v-69.78c0-9.17-2.38-16.05-7.13-20.63   C428.8,1546.96,421.23,1544.67,410.85,1544.67z M421.29,1623.73c-3.42,2.43-7.41,3.65-11.93,3.65c-5.86,0-8.79-2.82-8.79-8.45   v-4.81c0-3.42,0.58-5.91,1.74-7.46c1.16-1.55,3.57-2.82,7.22-3.81l11.77-3.31V1623.73z M536.72,1543.84   c-9.99,0-17.46,2.35-22.37,7.04s-7.37,11.13-7.37,19.31v47.07c0,8.18,2.45,14.61,7.37,19.31c4.92,4.7,12.38,7.04,22.37,7.04   c10.01,0,17.47-2.35,22.37-7.04c4.92-4.7,7.38-11.13,7.38-19.31v-47.07c0-8.18-2.46-14.61-7.38-19.31   C554.19,1546.18,546.73,1543.84,536.72,1543.84z M546.75,1616.77c0,6.52-3.34,9.78-10.03,9.78c-6.68,0-10.03-3.26-10.03-9.78   v-46.08c0-6.52,3.35-9.78,10.03-9.78c6.69,0,10.03,3.26,10.03,9.78V1616.77z M313.72,1545.83h21.05v96.13h20.05v-96.13h21.05   v-17.41h-62.15V1545.83z M483.27,1548.15c-1.22,0.66-3.42,2.05-6.63,4.14v-6.8h-18.89v96.46h20.05v-73.43   c5.3-3.31,10.82-4.97,16.57-4.97h4.47V1545h-3.31C491,1545,486.92,1546.05,483.27,1548.15z M1161.66,1548.15   c-1.23,0.66-3.44,2.05-6.64,4.14v-6.8h-18.89v96.46h20.05v-73.43c5.31-3.31,10.83-4.97,16.57-4.97h4.47V1545h-3.31   C1169.39,1545,1165.31,1546.05,1161.66,1548.15z M1297.24,1545c-6.3,0-12.82,1.6-19.55,4.81v-4.31h-18.89v121.16h20.05v-24.69   h14.42c7.62,0,13.7-2.07,18.23-6.21c4.53-4.14,6.79-10.25,6.79-18.32v-51.21c0-6.96-1.93-12.24-5.8-15.83   C1308.61,1546.79,1303.54,1545,1297.24,1545z M1298.06,1614.61c0,5.97-3.26,8.95-9.77,8.95h-9.45v-57.01   c3.75-2.1,7.62-3.15,11.6-3.15c5.08,0,7.62,2.38,7.62,7.13V1614.61z M1211.88,1544.67c-10.38,0-18.73,1.05-25.03,3.15v17.9   c6.41-2.32,12.98-3.48,19.73-3.48c6.74,0,11.04,0.78,12.93,2.32c1.87,1.55,2.87,4.03,2.98,7.46v11.11l-20.05,5.47   c-7.18,1.99-12.37,4.92-15.58,8.78c-3.2,3.87-4.81,9.17-4.81,15.91v5.64c0,7.96,1.83,13.87,5.48,17.73   c3.65,3.87,9.36,5.8,17.15,5.8c7.79,0,13.84-2.49,18.15-7.46v6.96h18.89v-69.78c0-9.17-2.38-16.05-7.13-20.63   C1229.83,1546.96,1222.26,1544.67,1211.88,1544.67z M1222.32,1623.73c-3.42,2.43-7.4,3.65-11.93,3.65c-5.86,0-8.78-2.82-8.78-8.45   v-4.81c0-3.42,0.58-5.91,1.74-7.46c1.16-1.55,3.56-2.82,7.21-3.81l11.77-3.31V1623.73z M1106.14,1547.32   c-4.64-2.32-11.39-3.48-20.22-3.48c-8.85,0-15.81,2.21-20.89,6.63c-5.08,4.42-7.62,10.66-7.62,18.73v13.76   c0,12.38,5.58,20.28,16.74,23.7c-5.97,1.32-8.96,5.25-8.96,11.77v2.65c0,9.73,7.57,14.59,22.71,14.59h9.95   c3.09,0,5.22,0.44,6.38,1.32c1.16,0.89,1.74,2.32,1.74,4.31v1.16c0,2.54-1.22,4.42-3.65,5.64c-2.43,1.21-6.79,1.82-13.09,1.82   h-4.47c-11.28,0-20.78-2.65-28.51-7.96v18.4c6.74,4.31,16.41,6.46,29,6.46h6.3c11.17,0,19.47-2.1,24.94-6.3   c5.48-4.2,8.21-10.06,8.21-17.57v-3.48c0-13.48-8.12-20.22-24.36-20.22h-9.29c-2.98,0-5.08-0.38-6.29-1.16   c-1.22-0.77-1.83-2.1-1.83-3.98c0-3.75,2.05-5.63,6.13-5.63c9.84-0.11,17.21-2.4,22.13-6.88c4.92-4.47,7.37-10.69,7.37-18.64   v-13.76c0-5.86-1.33-10.77-3.97-14.75c1.99-0.44,3.69-0.66,5.13-0.66h5.63v-18.06h-2.48   C1114.03,1535.72,1108.46,1539.58,1106.14,1547.32z M1098.68,1582.95c0,6.19-3.56,9.28-10.69,9.28s-10.7-3.09-10.7-9.28v-13.59   c0-6.3,3.57-9.45,10.7-9.45s10.69,3.15,10.69,9.45V1582.95z M780.12,1547.32c-4.64-2.32-11.39-3.48-20.22-3.48   c-8.85,0-15.81,2.21-20.89,6.63c-5.08,4.42-7.62,10.66-7.62,18.73v13.76c0,12.38,5.58,20.28,16.74,23.7   c-5.97,1.32-8.96,5.25-8.96,11.77v2.65c0,9.73,7.57,14.59,22.71,14.59h9.95c3.09,0,5.22,0.44,6.38,1.32   c1.16,0.89,1.74,2.32,1.74,4.31v1.16c0,2.54-1.22,4.42-3.65,5.64c-2.43,1.21-6.79,1.82-13.09,1.82h-4.47   c-11.28,0-20.78-2.65-28.51-7.96v18.4c6.74,4.31,16.41,6.46,29,6.46h6.3c11.16,0,19.47-2.1,24.94-6.3   c5.48-4.2,8.21-10.06,8.21-17.57v-3.48c0-13.48-8.12-20.22-24.36-20.22h-9.29c-2.98,0-5.08-0.38-6.29-1.16   c-1.22-0.77-1.83-2.1-1.83-3.98c0-3.75,2.05-5.63,6.13-5.63c9.84-0.11,17.21-2.4,22.13-6.88c4.92-4.47,7.37-10.69,7.37-18.64   v-13.76c0-5.86-1.33-10.77-3.97-14.75c1.99-0.44,3.69-0.66,5.13-0.66h5.63v-18.06h-2.48   C788.02,1535.72,782.44,1539.58,780.12,1547.32z M772.66,1582.95c0,6.19-3.56,9.28-10.69,9.28s-10.7-3.09-10.7-9.28v-13.59   c0-6.3,3.57-9.45,10.7-9.45s10.69,3.15,10.69,9.45V1582.95z M1387.24,1550.22c-4.2-3.48-9.45-5.22-15.75-5.22   s-11.99,0.99-17.08,2.98v-28.17h-19.89v122.15h20.05v-75.91c3.54-1.76,7.29-2.65,11.28-2.65c4.85,0,7.29,2.38,7.29,7.13v71.43   h20.38v-75.75C1393.53,1559.03,1391.43,1553.7,1387.24,1550.22z M834.99,1544.67c-10.4,0-18.74,1.05-25.03,3.15v17.9   c6.4-2.32,12.98-3.48,19.72-3.48s11.05,0.78,12.93,2.32c1.89,1.55,2.88,4.03,2.99,7.46v11.11l-20.05,5.47   c-7.18,1.99-12.38,4.92-15.58,8.78c-3.21,3.87-4.81,9.17-4.81,15.91v5.64c0,7.96,1.82,13.87,5.47,17.73   c3.65,3.87,9.37,5.8,17.15,5.8c7.8,0,13.84-2.49,18.15-7.46v6.96h18.89v-69.78c0-9.17-2.38-16.05-7.13-20.63   S845.37,1544.67,834.99,1544.67z M845.43,1623.73c-3.42,2.43-7.41,3.65-11.93,3.65c-5.86,0-8.79-2.82-8.79-8.45v-4.81   c0-3.42,0.58-5.91,1.74-7.46c1.16-1.55,3.57-2.82,7.22-3.81l11.77-3.31V1623.73z M925.48,1591.41l-22.37-62.99h-21.21v113.54   h19.06v-47.07c0-12.16-0.84-23.37-2.49-33.65l18.73,51.38h16.57l18.56-51.38c-1.55,11.27-2.32,22.49-2.32,33.65v47.07h19.23   v-113.54h-21.38L925.48,1591.41z M1015.22,1543.84c-9.99,0-17.46,2.35-22.37,7.04c-4.92,4.7-7.37,11.13-7.37,19.31v47.07   c0,8.18,2.45,14.61,7.37,19.31c4.92,4.7,12.38,7.04,22.37,7.04c10,0,17.47-2.35,22.37-7.04c4.92-4.7,7.38-11.13,7.38-19.31v-47.07   c0-8.18-2.46-14.61-7.38-19.31C1032.69,1546.18,1025.23,1543.84,1015.22,1543.84z M1025.25,1616.77c0,6.52-3.34,9.78-10.03,9.78   c-6.68,0-10.03-3.26-10.03-9.78v-46.08c0-6.52,3.35-9.78,10.03-9.78c6.69,0,10.03,3.26,10.03,9.78V1616.77z"></path>	</g></g></svg>