<svg xmlns="http://www.w3.org/2000/svg" xmlns:xlink="http://www.w3.org/1999/xlink" id="Calque_1" x="0px" y="0px" viewBox="0 0 1080 184" style="enable-background:new 0 0 1080 184;" xml:space="preserve"><style type="text/css">	.st0{fill:url(#SVGID_1_);}</style><g>	<g>		<linearGradient id="SVGID_1_" gradientUnits="userSpaceOnUse" x1="-139.8465" y1="50.7696" x2="1632.6299" y2="128.7258">			<stop offset="0.1671" style="stop-color:#58BCB6"></stop>			<stop offset="0.2047" style="stop-color:#7AC7C1"></stop>			<stop offset="0.248" style="stop-color:#99D0CC"></stop>			<stop offset="0.2933" style="stop-color:#B1D8D4"></stop>			<stop offset="0.3408" style="stop-color:#C2DED9"></stop>			<stop offset="0.3921" style="stop-color:#CDE1DD"></stop>			<stop offset="0.4536" style="stop-color:#D0E2DE"></stop>			<stop offset="0.5098" style="stop-color:#C9E0DC"></stop>			<stop offset="0.5915" style="stop-color:#B6DAD5"></stop>			<stop offset="0.6888" style="stop-color:#96D0CB"></stop>			<stop offset="0.7971" style="stop-color:#6AC2BC"></stop>			<stop offset="0.8374" style="stop-color:#58BCB6"></stop>		</linearGradient>		<path class="st0" d="M1073.71,46.47c-4.21-3.48-9.45-5.22-15.75-5.22s-11.99,0.99-17.08,2.98V16.05H1021v122.15h20.05V62.29   c3.54-1.76,7.29-2.65,11.28-2.65c4.85,0,7.29,2.38,7.29,7.13v71.43H1080V62.46C1080,55.28,1077.9,49.95,1073.71,46.47z    M169.74,44.4c-1.22,0.66-3.42,2.05-6.63,4.14v-6.8h-18.89v96.46h20.05V64.78c5.3-3.31,10.82-4.97,16.57-4.97h4.47V41.25h-3.31   C177.47,41.25,173.39,42.3,169.74,44.4z M223.19,40.09c-9.99,0-17.46,2.35-22.37,7.04c-4.92,4.7-7.37,11.13-7.37,19.31v47.07   c0,8.18,2.45,14.61,7.37,19.31c4.92,4.7,12.38,7.04,22.37,7.04c10.01,0,17.47-2.35,22.37-7.04c4.92-4.7,7.38-11.13,7.38-19.31   V66.44c0-8.18-2.47-14.61-7.38-19.31C240.66,42.43,233.2,40.09,223.19,40.09z M233.22,113.01c0,6.52-3.34,9.78-10.03,9.78   c-6.68,0-10.03-3.26-10.03-9.78V66.94c0-6.52,3.35-9.78,10.03-9.78c6.69,0,10.03,3.26,10.03,9.78V113.01z M792.61,43.57   c-4.64-2.32-11.39-3.48-20.22-3.48c-8.84,0-15.8,2.21-20.89,6.63c-5.07,4.42-7.62,10.66-7.62,18.73V79.2   c0,12.38,5.58,20.28,16.74,23.7c-5.97,1.32-8.96,5.25-8.96,11.77v2.65c0,9.73,7.57,14.59,22.71,14.59h9.95   c3.09,0,5.22,0.44,6.38,1.32c1.16,0.89,1.74,2.32,1.74,4.31v1.16c0,2.54-1.22,4.42-3.65,5.64c-2.43,1.21-6.79,1.82-13.09,1.82   h-4.47c-11.28,0-20.78-2.65-28.51-7.96v18.4c6.74,4.31,16.41,6.46,29,6.46h6.3c11.16,0,19.47-2.1,24.94-6.3   c5.48-4.21,8.21-10.06,8.21-17.57v-3.48c0-13.48-8.12-20.22-24.36-20.22h-9.29c-2.98,0-5.08-0.38-6.29-1.16   c-1.22-0.77-1.83-2.1-1.83-3.98c0-3.75,2.05-5.63,6.13-5.63c9.84-0.11,17.21-2.4,22.13-6.88c4.92-4.47,7.37-10.69,7.37-18.64   V65.44c0-5.86-1.33-10.77-3.97-14.75c1.99-0.44,3.69-0.66,5.13-0.66h5.63V31.97h-2.48C800.51,31.97,794.93,35.83,792.61,43.57z    M785.15,79.2c0,6.19-3.56,9.28-10.69,9.28s-10.7-3.09-10.7-9.28V65.61c0-6.3,3.57-9.45,10.7-9.45s10.69,3.15,10.69,9.45V79.2z    M0.2,42.08h21.05v96.13H41.3V42.08h21.05V24.67H0.2V42.08z M97.32,40.92c-10.4,0-18.74,1.05-25.03,3.15v17.9   c6.4-2.32,12.98-3.48,19.72-3.48s11.05,0.78,12.93,2.32c1.89,1.55,2.88,4.03,2.99,7.46v11.11l-20.05,5.47   c-7.18,1.99-12.38,4.92-15.58,8.78c-3.21,3.87-4.81,9.17-4.81,15.91v5.64c0,7.96,1.82,13.87,5.47,17.73   c3.65,3.87,9.37,5.8,17.15,5.8c7.8,0,13.84-2.49,18.15-7.46v6.96h18.89V68.43c0-9.17-2.38-16.05-7.13-20.63   S107.71,40.92,97.32,40.92z M107.76,119.97c-3.42,2.43-7.41,3.65-11.93,3.65c-5.86,0-8.79-2.82-8.79-8.45v-4.81   c0-3.42,0.58-5.91,1.74-7.46c1.16-1.55,3.57-2.82,7.22-3.81l11.77-3.31V119.97z M701.69,40.09c-9.99,0-17.46,2.35-22.37,7.04   c-4.92,4.7-7.37,11.13-7.37,19.31v47.07c0,8.18,2.45,14.61,7.37,19.31c4.92,4.7,12.38,7.04,22.37,7.04   c10.01,0,17.47-2.35,22.37-7.04c4.92-4.7,7.38-11.13,7.38-19.31V66.44c0-8.18-2.47-14.61-7.38-19.31   C719.16,42.43,711.7,40.09,701.69,40.09z M711.72,113.01c0,6.52-3.34,9.78-10.03,9.78c-6.68,0-10.03-3.26-10.03-9.78V66.94   c0-6.52,3.35-9.78,10.03-9.78c6.69,0,10.03,3.26,10.03,9.78V113.01z M307.81,117.16c-3.65,2.1-7.41,3.15-11.27,3.15   c-5.31,0-7.96-2.65-7.96-7.95V41.74h-20.22v74.09c0,7.29,1.89,12.87,5.64,16.74c3.75,3.86,9.14,5.8,16.15,5.8   c7.02,0,13.24-1.55,18.65-4.64v4.47h18.89V41.74h-19.89V117.16z M521.46,40.92c-10.4,0-18.74,1.05-25.03,3.15v17.9   c6.4-2.32,12.98-3.48,19.72-3.48c6.74,0,11.05,0.78,12.93,2.32c1.88,1.55,2.88,4.03,2.99,7.46v11.11l-20.05,5.47   c-7.18,1.99-12.38,4.92-15.58,8.78c-3.21,3.87-4.81,9.17-4.81,15.91v5.64c0,7.96,1.82,13.87,5.47,17.73   c3.65,3.87,9.37,5.8,17.15,5.8c7.8,0,13.84-2.49,18.15-7.46v6.96h18.89V68.43c0-9.17-2.38-16.05-7.13-20.63   C539.41,43.21,531.84,40.92,521.46,40.92z M531.9,119.97c-3.42,2.43-7.41,3.65-11.93,3.65c-5.86,0-8.79-2.82-8.79-8.45v-4.81   c0-3.42,0.58-5.91,1.74-7.46c1.16-1.55,3.57-2.82,7.22-3.81l11.77-3.31V119.97z M383.55,41.25c-6.3,0-12.65,1.6-19.06,4.81v-4.31   H345.6v96.46h20.05V62.79c3.76-2.1,7.52-3.15,11.28-3.15c4.85,0,7.29,2.38,7.29,7.13v71.43h20.38V62.46   c0-6.96-1.93-12.24-5.8-15.83C394.93,43.04,389.86,41.25,383.55,41.25z M848.13,44.4c-1.23,0.66-3.44,2.05-6.64,4.14v-6.8H822.6   v96.46h20.05V64.78c5.31-3.31,10.83-4.97,16.57-4.97h4.47V41.25h-3.31C855.86,41.25,851.78,42.3,848.13,44.4z M611.95,87.66   l-22.37-62.99h-21.21v113.54h19.06V91.14c0-12.16-0.84-23.37-2.49-33.65l18.73,51.38h16.57l18.56-51.38   c-1.55,11.27-2.32,22.49-2.32,33.65v47.07h19.23V24.67h-21.38L611.95,87.66z M983.71,41.25c-6.3,0-12.82,1.6-19.55,4.81v-4.31   h-18.89V162.9h20.05v-24.69h14.42c7.62,0,13.7-2.07,18.23-6.21c4.53-4.14,6.79-10.25,6.79-18.32V62.46   c0-6.96-1.93-12.24-5.8-15.83C995.09,43.04,990.01,41.25,983.71,41.25z M984.53,110.86c0,5.97-3.26,8.95-9.77,8.95h-9.45V62.79   c3.75-2.1,7.62-3.15,11.6-3.15c5.08,0,7.62,2.38,7.62,7.13V110.86z M466.59,43.57c-4.64-2.32-11.39-3.48-20.22-3.48   c-8.85,0-15.8,2.21-20.89,6.63c-5.08,4.42-7.62,10.66-7.62,18.73V79.2c0,12.38,5.58,20.28,16.74,23.7   c-5.97,1.32-8.96,5.25-8.96,11.77v2.65c0,9.73,7.57,14.59,22.71,14.59h9.95c3.09,0,5.22,0.44,6.38,1.32   c1.16,0.89,1.74,2.32,1.74,4.31v1.16c0,2.54-1.22,4.42-3.65,5.64c-2.43,1.21-6.79,1.82-13.09,1.82h-4.47   c-11.28,0-20.78-2.65-28.51-7.96v18.4c6.74,4.31,16.41,6.46,29,6.46h6.3c11.17,0,19.47-2.1,24.94-6.3   c5.48-4.21,8.21-10.06,8.21-17.57v-3.48c0-13.48-8.12-20.22-24.36-20.22h-9.29c-2.98,0-5.08-0.38-6.29-1.16   c-1.22-0.77-1.83-2.1-1.83-3.98c0-3.75,2.05-5.63,6.13-5.63c9.84-0.11,17.21-2.4,22.13-6.88c4.92-4.47,7.37-10.69,7.37-18.64   V65.44c0-5.86-1.33-10.77-3.97-14.75c1.99-0.44,3.69-0.66,5.13-0.66h5.63V31.97h-2.48C474.49,31.97,468.91,35.83,466.59,43.57z    M459.13,79.2c0,6.19-3.56,9.28-10.69,9.28c-7.13,0-10.7-3.09-10.7-9.28V65.61c0-6.3,3.57-9.45,10.7-9.45   c7.13,0,10.69,3.15,10.69,9.45V79.2z M898.35,40.92c-10.38,0-18.73,1.05-25.03,3.15v17.9c6.41-2.32,12.98-3.48,19.73-3.48   c6.74,0,11.04,0.78,12.93,2.32c1.87,1.55,2.87,4.03,2.98,7.46v11.11l-20.05,5.47c-7.18,1.99-12.37,4.92-15.58,8.78   c-3.2,3.87-4.81,9.17-4.81,15.91v5.64c0,7.96,1.83,13.87,5.48,17.73c3.65,3.87,9.36,5.8,17.15,5.8c7.79,0,13.84-2.49,18.15-7.46   v6.96h18.89V68.43c0-9.17-2.38-16.05-7.13-20.63C916.31,43.21,908.73,40.92,898.35,40.92z M908.79,119.97   c-3.42,2.43-7.39,3.65-11.93,3.65c-5.86,0-8.78-2.82-8.78-8.45v-4.81c0-3.42,0.58-5.91,1.74-7.46c1.16-1.55,3.56-2.82,7.21-3.81   l11.77-3.31V119.97z"></path>	</g></g></svg>